<svg width="137" height="24" viewBox="0 0 137 24" fill="none" xmlns="http://www.w3.org/2000/svg">
<path d="M14.144 0.216H8.832V16.632C8.832 18.456 8.832 19.8 7.392 19.8C6.016 19.8 6.016 18.456 6.016 16.632V0.216H0.704V15.992C0.704 18.872 0.832 23.448 7.392 23.448C12.352 23.448 14.016 21.336 14.144 16.504V0.216ZM18.3958 23H22.5558V3.96H22.6198L26.5558 23H33.3718V0.216H29.2118V16.792H29.1478L25.7558 0.216H18.3958V23ZM37.6278 23H43.0998C49.7878 23 51.0678 20.44 51.0678 16.12V7.992C51.0678 1.176 49.0518 0.216 43.0998 0.216H37.6278V23ZM42.9398 3.48C45.6278 3.48 45.7558 4.152 45.7558 7.192V16.568C45.7558 18.744 45.5318 19.736 42.9398 19.736V3.48ZM60.7275 23V0.216H55.4155V23H60.7275ZM70.3308 23V12.12H75.8348V8.664H70.3308V3.672H76.0268V0.216H65.0188V23H70.3308ZM85.1825 23V0.216H79.8705V23H85.1825ZM89.3457 23H93.5057V3.96H93.5697L97.5057 23H104.322V0.216H100.162V16.792H100.098L96.7057 0.216H89.3457V23ZM119.522 23V19.544H113.826V12.12H119.33V8.664H113.826V3.672H119.522V0.216H108.514V23H119.522ZM123.461 23H128.933C135.622 23 136.902 20.44 136.902 16.12V7.992C136.902 1.176 134.885 0.216 128.933 0.216H123.461V23ZM128.773 3.48C131.462 3.48 131.59 4.152 131.59 7.192V16.568C131.59 18.744 131.366 19.736 128.773 19.736V3.48Z" fill="white"/>
</svg>
